name D:\school\WTK\thesis\model\3dpredictsim\Results\batch_windlass\Pog_s1_tmt_bCst_d00_k1000_WL20_ig24_act_TTC.mot
datacolumns 128
datarows 4
range 1.20996977 1.24626887
endheader
time	pelvis_tilt	pelvis_list	pelvis_rotation	pelvis_tx	pelvis_ty	pelvis_tz	hip_flexion_l	hip_adduction_l	hip_rotation_l	hip_flexion_r	hip_adduction_r	hip_rotation_r	knee_angle_l	knee_angle_r	ankle_angle_l	ankle_angle_r	subtalar_angle_l	subtalar_angle_r	tmt_angle_l	tmt_angle_r	mtp_angle_l	mtp_angle_r	lumbar_extension	lumbar_bending	lumbar_rotation	arm_flex_l	arm_add_l	arm_rot_l	arm_flex_r	arm_add_r	arm_rot_r	elbow_flex_l	elbow_flex_r	pro_sup_l	pro_sup_r	glut_med1_l/activation	glut_med2_l/activation	glut_med3_l/activation	glut_min1_l/activation	glut_min2_l/activation	glut_min3_l/activation	semimem_l/activation	semiten_l/activation	bifemlh_l/activation	bifemsh_l/activation	sar_l/activation	add_long_l/activation	add_brev_l/activation	add_mag1_l/activation	add_mag2_l/activation	add_mag3_l/activation	tfl_l/activation	pect_l/activation	grac_l/activation	glut_max1_l/activation	glut_max2_l/activation	glut_max3_l/activation	iliacus_l/activation	psoas_l/activation	quad_fem_l/activation	gem_l/activation	peri_l/activation	rect_fem_l/activation	vas_med_l/activation	vas_int_l/activation	vas_lat_l/activation	med_gas_l/activation	lat_gas_l/activation	soleus_l/activation	tib_post_l/activation	flex_dig_l/activation	flex_hal_l/activation	tib_ant_l/activation	per_brev_l/activation	per_long_l/activation	per_tert_l/activation	ext_dig_l/activation	ext_hal_l/activation	ercspn_l/activation	intobl_l/activation	extobl_l/activation	glut_med1_r/activation	glut_med2_r/activation	glut_med3_r/activation	glut_min1_r/activation	glut_min2_r/activation	glut_min3_r/activation	semimem_r/activation	semiten_r/activation	bifemlh_r/activation	bifemsh_r/activation	sar_r/activation	add_long_r/activation	add_brev_r/activation	add_mag1_r/activation	add_mag2_r/activation	add_mag3_r/activation	tfl_r/activation	pect_r/activation	grac_r/activation	glut_max1_r/activation	glut_max2_r/activation	glut_max3_r/activation	iliacus_r/activation	psoas_r/activation	quad_fem_r/activation	gem_r/activation	peri_r/activation	rect_fem_r/activation	vas_med_r/activation	vas_int_r/activation	vas_lat_r/activation	med_gas_r/activation	lat_gas_r/activation	soleus_r/activation	tib_post_r/activation	flex_dig_r/activation	flex_hal_r/activation	tib_ant_r/activation	per_brev_r/activation	per_long_r/activation	per_tert_r/activation	ext_dig_r/activation	ext_hal_r/activation	ercspn_r/activation	intobl_r/activation	extobl_r/activation	
          1.20996977	         -2.92883681	         -0.44481421	          9.07772338	          1.51246222	          0.85531812	         -0.00261345	        -16.77333606	         -2.48583514	          8.01395236	         33.24399540	         -1.28211246	         -3.05308051	        -15.98226930	        -19.59247818	        -10.03213473	          2.00070598	         18.11643997	          8.74797388	         -7.33422572	         -0.47826445	         35.12192912	          2.07108158	          0.81547803	         -2.26431020	         -2.82823207	          2.42438820	        -13.52315801	         15.70398706	        -14.81446903	        -13.55911202	          8.72382988	         43.09064502	         20.22459216	         86.51662706	         86.51662706	          0.15059515	          0.08208593	          0.05292264	          0.17944912	          0.12496047	          0.08653649	          0.05163575	          0.05017526	          0.05016026	          0.05011303	          0.08759669	          0.13715601	          0.11373341	          0.05170548	          0.05364937	          0.05126121	          0.16879185	          0.05572849	          0.05098031	          0.05308082	          0.05269284	          0.05330968	          0.34721059	          0.45550229	          0.05084705	          0.05071057	          0.05023718	          0.17466201	          0.06165924	          0.10692594	          0.10850004	          0.14201769	          0.20099238	          0.05001277	          0.14268546	          0.15546424	          0.16170985	          0.24535684	          0.50359577	          0.36900608	          0.47422817	          0.42099952	          0.25262977	          0.05000751	          0.05012999	          0.07253967	          0.05099916	          0.05036294	          0.06906876	          0.05076896	          0.05070990	          0.05098064	          0.10067910	          0.06095351	          0.12717380	          0.05948679	          0.05066309	          0.10267431	          0.11806009	          0.13743072	          0.12168557	          0.09584221	          0.05927193	          0.06043452	          0.08173883	          0.05038274	          0.05032347	          0.10331878	          0.07035099	          0.07364032	          0.20215278	          0.06824790	          0.09156680	          0.05011935	          0.11375295	          0.11684653	          0.10537020	          0.06010235	          0.06011027	          0.06008592	          0.06007168	          0.06024554	          0.06016258	          0.54751005	          0.26409883	          0.15706655	          0.05022725	          0.56109790	          0.05009496	          0.05002813	          0.12831964	          0.12107426	
          1.22206947	         -2.92019403	         -0.40942259	          9.19578797	          1.53209386	          0.85398914	         -0.00226464	        -16.73191569	         -2.68554170	          7.79136631	         32.68756432	         -0.99838042	         -2.90659139	        -17.55980996	        -19.98276466	        -12.85744898	          1.69582933	         18.46674324	          8.34807812	         -7.67700618	         -0.54089542	         35.71213827	          2.36288693	          1.05161763	         -2.03494393	         -2.90917480	          2.02891302	        -13.58072363	         16.03554976	        -16.19270337	        -13.54887599	          8.92277792	         44.09504257	         20.07834733	         86.51662706	         86.51662706	          0.12536402	          0.06839412	          0.07151635	          0.14941558	          0.10404299	          0.07214100	          0.05600259	          0.05356483	          0.06035592	          0.05241000	          0.07301298	          0.18078575	          0.25269956	          0.29454167	          0.09387976	          0.12769893	          0.14049220	          0.06536554	          0.06452608	          0.05105085	          0.05067359	          0.05066153	          0.28895598	          0.37907852	          0.05032952	          0.07177461	          0.06826101	          0.14535398	          0.05138026	          0.08934130	          0.10198807	          0.11818585	          0.16726603	          0.05000832	          0.11874450	          0.12940082	          0.13458672	          0.44544570	          0.46300060	          0.33941517	          0.70891244	          0.53874169	          0.21236307	          0.05369651	          0.07219581	          0.07215564	          0.05004324	          0.05033838	          0.12178070	          0.05008135	          0.05009581	          0.05033243	          0.08379710	          0.05087759	          0.10584574	          0.05025944	          0.05133718	          0.08552412	          0.09831310	          0.25016046	          0.20948860	          0.11508171	          0.05023655	          0.05137605	          0.06833979	          0.06007315	          0.06036962	          0.13111145	          0.05857885	          0.07152505	          0.36198308	          0.07471377	          0.09211001	          0.07218358	          0.23254014	          0.22470399	          0.20134910	          0.05001740	          0.05002559	          0.05000302	          0.05000719	          0.05021325	          0.05009590	          0.70226021	          0.22002798	          0.13078023	          0.47426916	          0.63907107	          0.40788431	          0.05000702	          0.10678761	          0.10075874	
          1.23416917	         -2.90527598	         -0.39393663	          9.27518147	          1.55177016	          0.85218959	         -0.00193058	        -16.47294136	         -2.86038180	          7.56854609	         32.00070420	         -0.71176287	         -2.68203395	        -19.61453708	        -20.97154738	        -15.16848255	          1.73191429	         18.74614467	          7.89999761	         -7.55274504	         -0.68927864	         34.43186467	          2.48577289	          1.28019024	         -1.76862104	         -2.97043921	          1.59159895	        -13.65403907	         16.30865725	        -17.51547996	        -13.56442177	          9.24886954	         45.11526581	         19.86912774	         86.51662706	         86.51662706	          0.27379314	          0.06008665	          0.06006500	          0.12445022	          0.08665987	          0.06014397	          0.05133346	          0.05018597	          0.05064210	          0.05005514	          0.06085894	          0.15050307	          0.21382537	          0.24518584	          0.07953902	          0.10648020	          0.11695554	          0.05538539	          0.05472287	          0.06017859	          0.06044137	          0.06041229	          0.24048524	          0.31564252	          0.06010012	          0.06001456	          0.05682735	          0.12096361	          0.08626122	          0.08505157	          0.08497446	          0.09835388	          0.13920066	          0.05001164	          0.09882185	          0.10771497	          0.11201718	          0.37821699	          0.43029114	          0.31232250	          0.80377762	          0.73951519	          0.45580136	          0.09710947	          0.06008604	          0.06006701	          0.23280395	          0.32991363	          0.51365416	          0.20700606	          0.07669901	          0.43999408	          0.07774511	          0.05011226	          0.08838381	          0.05006961	          0.05048103	          0.07143342	          0.10481308	          0.20822978	          0.17446188	          0.13241429	          0.05017588	          0.06421168	          0.08386481	          0.05010908	          0.05027250	          0.15159434	          0.06007552	          0.05965110	          0.30126828	          0.12644421	          0.34723244	          0.06008164	          0.27092520	          0.27000702	          0.24428057	          0.05383609	          0.05346319	          0.06007936	          0.08815566	          0.05015115	          0.05026897	          0.61580665	          0.18311288	          0.10883834	          0.39472242	          0.55830039	          0.34609271	          0.05027886	          0.08887059	          0.08385244	
          1.24626887	         -2.88802283	         -0.38859458	          9.31377657	          1.57122535	          0.85027782	         -0.00158006	        -16.00873306	         -3.01657683	          7.35393857	         31.18895825	         -0.41222838	         -2.40627284	        -22.06922143	        -21.88133488	        -16.98675831	          1.68319029	         18.94460785	          7.42197733	         -6.96217551	         -0.65249076	         31.15961399	          2.51128382	          1.48660511	         -1.48536526	         -3.01775098	          1.16877608	        -13.73062149	         16.55077329	        -18.70745224	        -13.58527535	          9.68798236	         46.05815663	         19.54571182	         86.51662706	         86.51662706	          0.22790322	          0.05006848	          0.05002341	          0.10584925	          0.07217993	          0.05014277	          0.05688468	          0.05010758	          0.05021437	          0.05005739	          0.05091164	          0.16658610	          0.20855703	          0.20702759	          0.06993067	          0.09894386	          0.09736123	          0.05146011	          0.05010441	          0.05082008	          0.05064873	          0.05044847	          0.20014862	          0.28967997	          0.05004830	          0.05019482	          0.05004162	          0.10066625	          0.07213533	          0.07212926	          0.07214604	          0.08185077	          0.11584683	          0.05006364	          0.08224446	          0.08967596	          0.09324221	          0.53700484	          0.42371247	          0.29573216	          0.73471877	          0.61543293	          0.37932744	          0.14076331	          0.05001154	          0.05002493	          0.35485232	          0.48219111	          0.57250558	          0.27773748	          0.41589240	          0.39821583	          0.06471752	          0.07249027	          0.07356754	          0.06033093	          0.05028243	          0.05946305	          0.08723921	          0.17335241	          0.15361128	          0.14862993	          0.05017892	          0.05357441	          0.07171776	          0.28497823	          0.21173489	          0.17970335	          0.05003648	          0.05003117	          0.25075665	          0.10532303	          0.28912339	          0.05002379	          0.40403010	          0.39531782	          0.35097780	          0.05001214	          0.05002763	          0.05000423	          0.16866759	          0.14082177	          0.07257935	          0.69538257	          0.15239077	          0.09057905	          0.32852371	          0.47342875	          0.31775912	          0.06774223	          0.07395941	          0.06978399	
